{
    "asset" : {
        "generator" : "Khronos glTF Blender I/O v1.7.33",
        "version" : "2.0"
    },
    "extensionsUsed" : [
        "KHR_materials_clearcoat"
    ],
    "scene" : 0,
    "scenes" : [
        {
            "name" : "Scene",
            "nodes" : [
                0,
                1,
                2,
                3,
                4,
                5,
                6,
                7
            ]
        }
    ],
    "nodes" : [
        {
            "mesh" : 0,
            "name" : "Sphere"
        },
        {
            "mesh" : 1,
            "name" : "Cylinder",
            "scale" : [
                0.21413302421569824,
                1.128000259399414,
                0.21413302421569824
            ],
            "translation" : [
                0,
                1.6245173215866089,
                0
            ]
        },
        {
            "mesh" : 2,
            "name" : "Sphere.002",
            "rotation" : [
                -0.1519058346748352,
                0.825090229511261,
                -0.26310864090919495,
                0.4763660132884979
            ],
            "translation" : [
                -0.8343365788459778,
                -0.03807741403579712,
                3.633244752883911
            ]
        },
        {
            "mesh" : 3,
            "name" : "Cylinder.004",
            "rotation" : [
                -0.38994160294532776,
                0.5881798267364502,
                -0.2553856372833252,
                -0.6608845591545105
            ],
            "scale" : [
                0.21413302421569824,
                1.5043115615844727,
                0.21413302421569824
            ],
            "translation" : [
                1.2071589231491089,
                -0.857225775718689,
                -0.3259226679801941
            ]
        },
        {
            "mesh" : 4,
            "name" : "Cylinder.002",
            "rotation" : [
                -0.41614121198654175,
                -0.2782529294490814,
                0.2100064903497696,
                -0.8398208618164062
            ],
            "scale" : [
                0.21413302421569824,
                1.5043115615844727,
                0.21413302421569824
            ],
            "translation" : [
                -0.8858367204666138,
                -0.8572257161140442,
                -0.8824689388275146
            ]
        },
        {
            "mesh" : 5,
            "name" : "Cylinder.003",
            "rotation" : [
                0.029401961714029312,
                -0.6840866804122925,
                0.7066264152526855,
                -0.17843766510486603
            ],
            "scale" : [
                0.21413302421569824,
                1.5043115615844727,
                0.21413302421569824
            ],
            "translation" : [
                -0.32132208347320557,
                -0.04765760898590088,
                1.6194323301315308
            ]
        },
        {
            "mesh" : 6,
            "name" : "Cylinder.005",
            "rotation" : [
                -0.04112127050757408,
                -0.9024280309677124,
                0.3910491168498993,
                -0.1761065572500229
            ],
            "scale" : [
                0.21413302421569824,
                1.5043115615844727,
                0.21413302421569824
            ],
            "translation" : [
                -1.0868289470672607,
                -0.98667973279953,
                4.742701053619385
            ]
        },
        {
            "mesh" : 7,
            "name" : "Sphere.005",
            "rotation" : [
                -0.1519058346748352,
                0.825090229511261,
                -0.26310864090919495,
                0.4763660132884979
            ],
            "translation" : [
                -1.2596182823181152,
                -2.1406702995300293,
                5.72222900390625
            ]
        }
    ],
    "materials" : [
        {
            "doubleSided" : true,
            "extensions" : {
                "KHR_materials_clearcoat" : {
                    "clearcoatFactor" : 0.20000000298023224,
                    "clearcoatRoughnessFactor" : 0.10000000149011612
                }
            },
            "name" : "\u041c\u0430\u0442\u0435\u0440\u0438\u0430\u043b.002",
            "pbrMetallicRoughness" : {
                "baseColorFactor" : [
                    0.7011022567749023,
                    0.6653873920440674,
                    0.18782085180282593,
                    1
                ],
                "metallicFactor" : 0.27000001072883606,
                "roughnessFactor" : 0.4000000059604645
            }
        },
        {
            "doubleSided" : true,
            "name" : "\u041c\u0430\u0442\u0435\u0440\u0438\u0430\u043b.001",
            "pbrMetallicRoughness" : {
                "baseColorFactor" : [
                    0.5209957361221313,
                    0.5209954977035522,
                    0.5209956169128418,
                    1
                ],
                "metallicFactor" : 0,
                "roughnessFactor" : 0.5
            }
        },
        {
            "doubleSided" : true,
            "extensions" : {
                "KHR_materials_clearcoat" : {
                    "clearcoatFactor" : 0.20000000298023224,
                    "clearcoatRoughnessFactor" : 0.10000000149011612
                }
            },
            "name" : "\u041c\u0430\u0442\u0435\u0440\u0438\u0430\u043b.003",
            "pbrMetallicRoughness" : {
                "baseColorFactor" : [
                    0.07818739116191864,
                    0.15592652559280396,
                    0.3139888048171997,
                    1
                ],
                "metallicFactor" : 0.27000001072883606,
                "roughnessFactor" : 0.4000000059604645
            }
        },
        {
            "doubleSided" : true,
            "extensions" : {
                "KHR_materials_clearcoat" : {
                    "clearcoatFactor" : 0.20000000298023224,
                    "clearcoatRoughnessFactor" : 0.10000000149011612
                }
            },
            "name" : "\u041c\u0430\u0442\u0435\u0440\u0438\u0430\u043b",
            "pbrMetallicRoughness" : {
                "baseColorFactor" : [
                    0.024157635867595673,
                    0.31398874521255493,
                    0.21223078668117523,
                    1
                ],
                "metallicFactor" : 0.27000001072883606,
                "roughnessFactor" : 0.4000000059604645
            }
        }
    ],
    "meshes" : [
        {
            "name" : "Sphere",
            "primitives" : [
                {
                    "attributes" : {
                        "POSITION" : 0,
                        "NORMAL" : 1,
                        "TEXCOORD_0" : 2
                    },
                    "indices" : 3,
                    "material" : 0
                }
            ]
        },
        {
            "name" : "Cylinder",
            "primitives" : [
                {
                    "attributes" : {
                        "POSITION" : 4,
                        "NORMAL" : 5,
                        "TEXCOORD_0" : 6
                    },
                    "indices" : 7,
                    "material" : 1
                }
            ]
        },
        {
            "name" : "Sphere.005",
            "primitives" : [
                {
                    "attributes" : {
                        "POSITION" : 8,
                        "NORMAL" : 9,
                        "TEXCOORD_0" : 10
                    },
                    "indices" : 11,
                    "material" : 2
                }
            ]
        },
        {
            "name" : "Cylinder.009",
            "primitives" : [
                {
                    "attributes" : {
                        "POSITION" : 12,
                        "NORMAL" : 13,
                        "TEXCOORD_0" : 14
                    },
                    "indices" : 7,
                    "material" : 1
                }
            ]
        },
        {
            "name" : "Cylinder.010",
            "primitives" : [
                {
                    "attributes" : {
                        "POSITION" : 15,
                        "NORMAL" : 16,
                        "TEXCOORD_0" : 17
                    },
                    "indices" : 7,
                    "material" : 1
                }
            ]
        },
        {
            "name" : "Cylinder.011",
            "primitives" : [
                {
                    "attributes" : {
                        "POSITION" : 18,
                        "NORMAL" : 19,
                        "TEXCOORD_0" : 20
                    },
                    "indices" : 7,
                    "material" : 1
                }
            ]
        },
        {
            "name" : "Cylinder.001",
            "primitives" : [
                {
                    "attributes" : {
                        "POSITION" : 21,
                        "NORMAL" : 22,
                        "TEXCOORD_0" : 23
                    },
                    "indices" : 7,
                    "material" : 1
                }
            ]
        },
        {
            "name" : "Sphere.002",
            "primitives" : [
                {
                    "attributes" : {
                        "POSITION" : 24,
                        "NORMAL" : 25,
                        "TEXCOORD_0" : 26
                    },
                    "indices" : 27,
                    "material" : 3
                }
            ]
        }
    ],
    "accessors" : [
        {
            "bufferView" : 0,
            "componentType" : 5126,
            "count" : 559,
            "max" : [
                0.9999997019767761,
                1,
                0.9999994039535522
            ],
            "min" : [
                -0.9999990463256836,
                -1,
                -0.9999987483024597
            ],
            "type" : "VEC3"
        },
        {
            "bufferView" : 1,
            "componentType" : 5126,
            "count" : 559,
            "type" : "VEC3"
        },
        {
            "bufferView" : 2,
            "componentType" : 5126,
            "count" : 559,
            "type" : "VEC2"
        },
        {
            "bufferView" : 3,
            "componentType" : 5123,
            "count" : 2880,
            "type" : "SCALAR"
        },
        {
            "bufferView" : 4,
            "componentType" : 5126,
            "count" : 130,
            "max" : [
                1,
                1,
                1
            ],
            "min" : [
                -1,
                -1,
                -1
            ],
            "type" : "VEC3"
        },
        {
            "bufferView" : 5,
            "componentType" : 5126,
            "count" : 130,
            "type" : "VEC3"
        },
        {
            "bufferView" : 6,
            "componentType" : 5126,
            "count" : 130,
            "type" : "VEC2"
        },
        {
            "bufferView" : 7,
            "componentType" : 5123,
            "count" : 372,
            "type" : "SCALAR"
        },
        {
            "bufferView" : 8,
            "componentType" : 5126,
            "count" : 559,
            "max" : [
                0.9999997019767761,
                1,
                0.9999994039535522
            ],
            "min" : [
                -0.9999990463256836,
                -1,
                -0.9999987483024597
            ],
            "type" : "VEC3"
        },
        {
            "bufferView" : 9,
            "componentType" : 5126,
            "count" : 559,
            "type" : "VEC3"
        },
        {
            "bufferView" : 10,
            "componentType" : 5126,
            "count" : 559,
            "type" : "VEC2"
        },
        {
            "bufferView" : 11,
            "componentType" : 5123,
            "count" : 2880,
            "type" : "SCALAR"
        },
        {
            "bufferView" : 12,
            "componentType" : 5126,
            "count" : 130,
            "max" : [
                1,
                1,
                1
            ],
            "min" : [
                -1,
                -1,
                -1
            ],
            "type" : "VEC3"
        },
        {
            "bufferView" : 13,
            "componentType" : 5126,
            "count" : 130,
            "type" : "VEC3"
        },
        {
            "bufferView" : 14,
            "componentType" : 5126,
            "count" : 130,
            "type" : "VEC2"
        },
        {
            "bufferView" : 15,
            "componentType" : 5126,
            "count" : 130,
            "max" : [
                1,
                1,
                1
            ],
            "min" : [
                -1,
                -1,
                -1
            ],
            "type" : "VEC3"
        },
        {
            "bufferView" : 16,
            "componentType" : 5126,
            "count" : 130,
            "type" : "VEC3"
        },
        {
            "bufferView" : 17,
            "componentType" : 5126,
            "count" : 130,
            "type" : "VEC2"
        },
        {
            "bufferView" : 18,
            "componentType" : 5126,
            "count" : 130,
            "max" : [
                1,
                1,
                1
            ],
            "min" : [
                -1,
                -1,
                -1
            ],
            "type" : "VEC3"
        },
        {
            "bufferView" : 19,
            "componentType" : 5126,
            "count" : 130,
            "type" : "VEC3"
        },
        {
            "bufferView" : 20,
            "componentType" : 5126,
            "count" : 130,
            "type" : "VEC2"
        },
        {
            "bufferView" : 21,
            "componentType" : 5126,
            "count" : 130,
            "max" : [
                1,
                1,
                1
            ],
            "min" : [
                -1,
                -1,
                -1
            ],
            "type" : "VEC3"
        },
        {
            "bufferView" : 22,
            "componentType" : 5126,
            "count" : 130,
            "type" : "VEC3"
        },
        {
            "bufferView" : 23,
            "componentType" : 5126,
            "count" : 130,
            "type" : "VEC2"
        },
        {
            "bufferView" : 24,
            "componentType" : 5126,
            "count" : 2236,
            "max" : [
                6.8256378173828125,
                8.269765853881836,
                7.096254825592041
            ],
            "min" : [
                -0.9999990463256836,
                -1,
                -0.9999987483024597
            ],
            "type" : "VEC3"
        },
        {
            "bufferView" : 25,
            "componentType" : 5126,
            "count" : 2236,
            "type" : "VEC3"
        },
        {
            "bufferView" : 26,
            "componentType" : 5126,
            "count" : 2236,
            "type" : "VEC2"
        },
        {
            "bufferView" : 27,
            "componentType" : 5123,
            "count" : 11520,
            "type" : "SCALAR"
        }
    ],
    "bufferViews" : [
        {
            "buffer" : 0,
            "byteLength" : 6708,
            "byteOffset" : 0
        },
        {
            "buffer" : 0,
            "byteLength" : 6708,
            "byteOffset" : 6708
        },
        {
            "buffer" : 0,
            "byteLength" : 4472,
            "byteOffset" : 13416
        },
        {
            "buffer" : 0,
            "byteLength" : 5760,
            "byteOffset" : 17888
        },
        {
            "buffer" : 0,
            "byteLength" : 1560,
            "byteOffset" : 23648
        },
        {
            "buffer" : 0,
            "byteLength" : 1560,
            "byteOffset" : 25208
        },
        {
            "buffer" : 0,
            "byteLength" : 1040,
            "byteOffset" : 26768
        },
        {
            "buffer" : 0,
            "byteLength" : 744,
            "byteOffset" : 27808
        },
        {
            "buffer" : 0,
            "byteLength" : 6708,
            "byteOffset" : 28552
        },
        {
            "buffer" : 0,
            "byteLength" : 6708,
            "byteOffset" : 35260
        },
        {
            "buffer" : 0,
            "byteLength" : 4472,
            "byteOffset" : 41968
        },
        {
            "buffer" : 0,
            "byteLength" : 5760,
            "byteOffset" : 46440
        },
        {
            "buffer" : 0,
            "byteLength" : 1560,
            "byteOffset" : 52200
        },
        {
            "buffer" : 0,
            "byteLength" : 1560,
            "byteOffset" : 53760
        },
        {
            "buffer" : 0,
            "byteLength" : 1040,
            "byteOffset" : 55320
        },
        {
            "buffer" : 0,
            "byteLength" : 1560,
            "byteOffset" : 56360
        },
        {
            "buffer" : 0,
            "byteLength" : 1560,
            "byteOffset" : 57920
        },
        {
            "buffer" : 0,
            "byteLength" : 1040,
            "byteOffset" : 59480
        },
        {
            "buffer" : 0,
            "byteLength" : 1560,
            "byteOffset" : 60520
        },
        {
            "buffer" : 0,
            "byteLength" : 1560,
            "byteOffset" : 62080
        },
        {
            "buffer" : 0,
            "byteLength" : 1040,
            "byteOffset" : 63640
        },
        {
            "buffer" : 0,
            "byteLength" : 1560,
            "byteOffset" : 64680
        },
        {
            "buffer" : 0,
            "byteLength" : 1560,
            "byteOffset" : 66240
        },
        {
            "buffer" : 0,
            "byteLength" : 1040,
            "byteOffset" : 67800
        },
        {
            "buffer" : 0,
            "byteLength" : 26832,
            "byteOffset" : 68840
        },
        {
            "buffer" : 0,
            "byteLength" : 26832,
            "byteOffset" : 95672
        },
        {
            "buffer" : 0,
            "byteLength" : 17888,
            "byteOffset" : 122504
        },
        {
            "buffer" : 0,
            "byteLength" : 23040,
            "byteOffset" : 140392
        }
    ],
    "buffers" : [
        {
            "byteLength" : 163432,
            "uri" : "data:application/octet-stream;base64,"
        }
    ]
}
