{
    "asset" : {
        "generator" : "Khronos glTF Blender I/O v1.7.33",
        "version" : "2.0"
    },
    "extensionsUsed" : [
        "KHR_materials_clearcoat"
    ],
    "scene" : 0,
    "scenes" : [
        {
            "name" : "Scene",
            "nodes" : [
                0,
                1,
                2,
                3,
                4,
                5,
                6
            ]
        }
    ],
    "nodes" : [
        {
            "mesh" : 0,
            "name" : "Sphere"
        },
        {
            "mesh" : 1,
            "name" : "Sphere.003",
            "translation" : [
                -2.0332388877868652,
                -2.181666135787964,
                -1.9539661407470703
            ]
        },
        {
            "mesh" : 2,
            "name" : "Cylinder",
            "scale" : [
                0.21413302421569824,
                1.128000259399414,
                0.21413302421569824
            ],
            "translation" : [
                0,
                1.6245173215866089,
                0
            ]
        },
        {
            "mesh" : 3,
            "name" : "Cylinder.001",
            "scale" : [
                0.21413302421569824,
                1.128000259399414,
                0.21413302421569824
            ],
            "translation" : [
                0,
                1.6245173215866089,
                0
            ]
        },
        {
            "mesh" : 4,
            "name" : "Cylinder.004",
            "rotation" : [
                -0.38994160294532776,
                0.5881798267364502,
                -0.2553856372833252,
                -0.6608845591545105
            ],
            "scale" : [
                0.21413302421569824,
                1.5043115615844727,
                0.21413302421569824
            ],
            "translation" : [
                1.2071589231491089,
                -0.857225775718689,
                -0.3259226679801941
            ]
        },
        {
            "mesh" : 5,
            "name" : "Cylinder.002",
            "rotation" : [
                -0.41614121198654175,
                -0.2782529294490814,
                0.2100064903497696,
                -0.8398208618164062
            ],
            "scale" : [
                0.21413302421569824,
                1.5043115615844727,
                0.21413302421569824
            ],
            "translation" : [
                -0.8858367204666138,
                -0.8572257161140442,
                -0.8824689388275146
            ]
        },
        {
            "mesh" : 6,
            "name" : "Cylinder.003",
            "rotation" : [
                -0.02619953639805317,
                -0.866432785987854,
                0.46539220213890076,
                -0.17893610894680023
            ],
            "scale" : [
                0.21413302421569824,
                1.5043115615844727,
                0.21413302421569824
            ],
            "translation" : [
                -0.32132208347320557,
                -0.8572256565093994,
                1.2083916664123535
            ]
        }
    ],
    "materials" : [
        {
            "doubleSided" : true,
            "extensions" : {
                "KHR_materials_clearcoat" : {
                    "clearcoatFactor" : 0.20000000298023224,
                    "clearcoatRoughnessFactor" : 0.10000000149011612
                }
            },
            "name" : "\u041c\u0430\u0442\u0435\u0440\u0438\u0430\u043b.001",
            "pbrMetallicRoughness" : {
                "baseColorFactor" : [
                    0.7011022567749023,
                    0.6653873920440674,
                    0.18782085180282593,
                    1
                ],
                "metallicFactor" : 0.27000001072883606,
                "roughnessFactor" : 0.4000000059604645
            }
        },
        {
            "doubleSided" : true,
            "extensions" : {
                "KHR_materials_clearcoat" : {
                    "clearcoatFactor" : 0.20000000298023224,
                    "clearcoatRoughnessFactor" : 0.10000000149011612
                }
            },
            "name" : "\u041c\u0430\u0442\u0435\u0440\u0438\u0430\u043b",
            "pbrMetallicRoughness" : {
                "baseColorFactor" : [
                    0.024157635867595673,
                    0.31398874521255493,
                    0.21223078668117523,
                    0.5090909004211426
                ],
                "metallicFactor" : 0.27000001072883606,
                "roughnessFactor" : 0.4000000059604645
            }
        },
        {
            "doubleSided" : true,
            "name" : "\u041c\u0430\u0442\u0435\u0440\u0438\u0430\u043b.005",
            "pbrMetallicRoughness" : {
                "baseColorFactor" : [
                    0.5209957361221313,
                    0.5209954977035522,
                    0.5209956169128418,
                    1
                ],
                "metallicFactor" : 0,
                "roughnessFactor" : 0.5
            }
        },
        {
            "doubleSided" : true,
            "name" : "\u041c\u0430\u0442\u0435\u0440\u0438\u0430\u043b.003",
            "pbrMetallicRoughness" : {
                "baseColorFactor" : [
                    0.5209957361221313,
                    0.5209954977035522,
                    0.5209956169128418,
                    1
                ],
                "metallicFactor" : 0,
                "roughnessFactor" : 0.5
            }
        },
        {
            "doubleSided" : true,
            "name" : "\u041c\u0430\u0442\u0435\u0440\u0438\u0430\u043b.002",
            "pbrMetallicRoughness" : {
                "baseColorFactor" : [
                    0.5209957361221313,
                    0.5209954977035522,
                    0.5209956169128418,
                    1
                ],
                "metallicFactor" : 0,
                "roughnessFactor" : 0.5
            }
        }
    ],
    "meshes" : [
        {
            "name" : "Sphere",
            "primitives" : [
                {
                    "attributes" : {
                        "POSITION" : 0,
                        "NORMAL" : 1,
                        "TEXCOORD_0" : 2
                    },
                    "indices" : 3,
                    "material" : 0
                }
            ]
        },
        {
            "name" : "Sphere.003",
            "primitives" : [
                {
                    "attributes" : {
                        "POSITION" : 4,
                        "NORMAL" : 5,
                        "TEXCOORD_0" : 6
                    },
                    "indices" : 7,
                    "material" : 1
                }
            ]
        },
        {
            "name" : "Cylinder",
            "primitives" : [
                {
                    "attributes" : {
                        "POSITION" : 8,
                        "NORMAL" : 9,
                        "TEXCOORD_0" : 10
                    },
                    "indices" : 11
                }
            ]
        },
        {
            "name" : "Cylinder.004",
            "primitives" : [
                {
                    "attributes" : {
                        "POSITION" : 12,
                        "NORMAL" : 13,
                        "TEXCOORD_0" : 14
                    },
                    "indices" : 15,
                    "material" : 2
                }
            ]
        },
        {
            "name" : "Cylinder.009",
            "primitives" : [
                {
                    "attributes" : {
                        "POSITION" : 16,
                        "NORMAL" : 17,
                        "TEXCOORD_0" : 18
                    },
                    "indices" : 15,
                    "material" : 3
                }
            ]
        },
        {
            "name" : "Cylinder.010",
            "primitives" : [
                {
                    "attributes" : {
                        "POSITION" : 19,
                        "NORMAL" : 20,
                        "TEXCOORD_0" : 21
                    },
                    "indices" : 15,
                    "material" : 4
                }
            ]
        },
        {
            "name" : "Cylinder.011",
            "primitives" : [
                {
                    "attributes" : {
                        "POSITION" : 22,
                        "NORMAL" : 23,
                        "TEXCOORD_0" : 24
                    },
                    "indices" : 15,
                    "material" : 4
                }
            ]
        }
    ],
    "accessors" : [
        {
            "bufferView" : 0,
            "componentType" : 5126,
            "count" : 559,
            "max" : [
                0.9999997019767761,
                1,
                0.9999994039535522
            ],
            "min" : [
                -0.9999990463256836,
                -1,
                -0.9999987483024597
            ],
            "type" : "VEC3"
        },
        {
            "bufferView" : 1,
            "componentType" : 5126,
            "count" : 559,
            "type" : "VEC3"
        },
        {
            "bufferView" : 2,
            "componentType" : 5126,
            "count" : 559,
            "type" : "VEC2"
        },
        {
            "bufferView" : 3,
            "componentType" : 5123,
            "count" : 2880,
            "type" : "SCALAR"
        },
        {
            "bufferView" : 4,
            "componentType" : 5126,
            "count" : 2236,
            "max" : [
                5.739900588989258,
                5.894528388977051,
                5.689643859863281
            ],
            "min" : [
                -0.9999990463256836,
                -1,
                -0.9999987483024597
            ],
            "type" : "VEC3"
        },
        {
            "bufferView" : 5,
            "componentType" : 5126,
            "count" : 2236,
            "type" : "VEC3"
        },
        {
            "bufferView" : 6,
            "componentType" : 5126,
            "count" : 2236,
            "type" : "VEC2"
        },
        {
            "bufferView" : 7,
            "componentType" : 5123,
            "count" : 11520,
            "type" : "SCALAR"
        },
        {
            "bufferView" : 8,
            "componentType" : 5126,
            "count" : 192,
            "max" : [
                1,
                1,
                1
            ],
            "min" : [
                -1,
                -1,
                -1
            ],
            "type" : "VEC3"
        },
        {
            "bufferView" : 9,
            "componentType" : 5126,
            "count" : 192,
            "type" : "VEC3"
        },
        {
            "bufferView" : 10,
            "componentType" : 5126,
            "count" : 192,
            "type" : "VEC2"
        },
        {
            "bufferView" : 11,
            "componentType" : 5123,
            "count" : 372,
            "type" : "SCALAR"
        },
        {
            "bufferView" : 12,
            "componentType" : 5126,
            "count" : 130,
            "max" : [
                1,
                1,
                1
            ],
            "min" : [
                -1,
                -1,
                -1
            ],
            "type" : "VEC3"
        },
        {
            "bufferView" : 13,
            "componentType" : 5126,
            "count" : 130,
            "type" : "VEC3"
        },
        {
            "bufferView" : 14,
            "componentType" : 5126,
            "count" : 130,
            "type" : "VEC2"
        },
        {
            "bufferView" : 15,
            "componentType" : 5123,
            "count" : 372,
            "type" : "SCALAR"
        },
        {
            "bufferView" : 16,
            "componentType" : 5126,
            "count" : 130,
            "max" : [
                1,
                1,
                1
            ],
            "min" : [
                -1,
                -1,
                -1
            ],
            "type" : "VEC3"
        },
        {
            "bufferView" : 17,
            "componentType" : 5126,
            "count" : 130,
            "type" : "VEC3"
        },
        {
            "bufferView" : 18,
            "componentType" : 5126,
            "count" : 130,
            "type" : "VEC2"
        },
        {
            "bufferView" : 19,
            "componentType" : 5126,
            "count" : 130,
            "max" : [
                1,
                1,
                1
            ],
            "min" : [
                -1,
                -1,
                -1
            ],
            "type" : "VEC3"
        },
        {
            "bufferView" : 20,
            "componentType" : 5126,
            "count" : 130,
            "type" : "VEC3"
        },
        {
            "bufferView" : 21,
            "componentType" : 5126,
            "count" : 130,
            "type" : "VEC2"
        },
        {
            "bufferView" : 22,
            "componentType" : 5126,
            "count" : 130,
            "max" : [
                1,
                1,
                1
            ],
            "min" : [
                -1,
                -1,
                -1
            ],
            "type" : "VEC3"
        },
        {
            "bufferView" : 23,
            "componentType" : 5126,
            "count" : 130,
            "type" : "VEC3"
        },
        {
            "bufferView" : 24,
            "componentType" : 5126,
            "count" : 130,
            "type" : "VEC2"
        }
    ],
    "bufferViews" : [
        {
            "buffer" : 0,
            "byteLength" : 6708,
            "byteOffset" : 0
        },
        {
            "buffer" : 0,
            "byteLength" : 6708,
            "byteOffset" : 6708
        },
        {
            "buffer" : 0,
            "byteLength" : 4472,
            "byteOffset" : 13416
        },
        {
            "buffer" : 0,
            "byteLength" : 5760,
            "byteOffset" : 17888
        },
        {
            "buffer" : 0,
            "byteLength" : 26832,
            "byteOffset" : 23648
        },
        {
            "buffer" : 0,
            "byteLength" : 26832,
            "byteOffset" : 50480
        },
        {
            "buffer" : 0,
            "byteLength" : 17888,
            "byteOffset" : 77312
        },
        {
            "buffer" : 0,
            "byteLength" : 23040,
            "byteOffset" : 95200
        },
        {
            "buffer" : 0,
            "byteLength" : 2304,
            "byteOffset" : 118240
        },
        {
            "buffer" : 0,
            "byteLength" : 2304,
            "byteOffset" : 120544
        },
        {
            "buffer" : 0,
            "byteLength" : 1536,
            "byteOffset" : 122848
        },
        {
            "buffer" : 0,
            "byteLength" : 744,
            "byteOffset" : 124384
        },
        {
            "buffer" : 0,
            "byteLength" : 1560,
            "byteOffset" : 125128
        },
        {
            "buffer" : 0,
            "byteLength" : 1560,
            "byteOffset" : 126688
        },
        {
            "buffer" : 0,
            "byteLength" : 1040,
            "byteOffset" : 128248
        },
        {
            "buffer" : 0,
            "byteLength" : 744,
            "byteOffset" : 129288
        },
        {
            "buffer" : 0,
            "byteLength" : 1560,
            "byteOffset" : 130032
        },
        {
            "buffer" : 0,
            "byteLength" : 1560,
            "byteOffset" : 131592
        },
        {
            "buffer" : 0,
            "byteLength" : 1040,
            "byteOffset" : 133152
        },
        {
            "buffer" : 0,
            "byteLength" : 1560,
            "byteOffset" : 134192
        },
        {
            "buffer" : 0,
            "byteLength" : 1560,
            "byteOffset" : 135752
        },
        {
            "buffer" : 0,
            "byteLength" : 1040,
            "byteOffset" : 137312
        },
        {
            "buffer" : 0,
            "byteLength" : 1560,
            "byteOffset" : 138352
        },
        {
            "buffer" : 0,
            "byteLength" : 1560,
            "byteOffset" : 139912
        },
        {
            "buffer" : 0,
            "byteLength" : 1040,
            "byteOffset" : 141472
        }
    ],
    "buffers" : [
        {
            "byteLength" : 142512,
            "uri" : "data:application/octet-stream;base64,"
        }
    ]
}
