{
    "asset" : {
        "generator" : "Khronos glTF Blender I/O v1.7.33",
        "version" : "2.0"
    },
    "extensionsUsed" : [
        "KHR_materials_clearcoat"
    ],
    "scene" : 0,
    "scenes" : [
        {
            "name" : "Scene",
            "nodes" : [
                0,
                1,
                2,
                3,
                4,
                5,
                6,
                7,
                8,
                9
            ]
        }
    ],
    "nodes" : [
        {
            "mesh" : 0,
            "name" : "Sphere.001",
            "rotation" : [
                -0.2588190734386444,
                0,
                0,
                0.965925931930542
            ],
            "translation" : [
                0,
                2.349407911300659,
                -1.356431245803833
            ]
        },
        {
            "mesh" : 1,
            "name" : "Sphere.002",
            "rotation" : [
                -0.1519058346748352,
                0.825090229511261,
                -0.26310864090919495,
                0.4763660132884979
            ],
            "translation" : [
                -0.8343365788459778,
                -0.03807741403579712,
                3.633244752883911
            ]
        },
        {
            "mesh" : 2,
            "name" : "1",
            "rotation" : [
                -0.2588190734386444,
                0,
                0,
                0.965925931930542
            ],
            "scale" : [
                0.21413302421569824,
                1.128000259399414,
                0.21413302421569824
            ],
            "translation" : [
                0,
                1.4068732261657715,
                -0.8122586607933044
            ]
        },
        {
            "mesh" : 3,
            "name" : "3",
            "rotation" : [
                0.029401961714029312,
                -0.6840866804122925,
                0.7066264152526855,
                -0.17843766510486603
            ],
            "scale" : [
                0.21413302421569824,
                1.5043115615844727,
                0.21413302421569824
            ],
            "translation" : [
                -0.32132208347320557,
                -0.04765760898590088,
                1.6194323301315308
            ]
        },
        {
            "mesh" : 4,
            "name" : "Sphere.005",
            "rotation" : [
                -0.12999826669692993,
                0.8362424373626709,
                -0.22516360878944397,
                0.4828047454357147
            ],
            "translation" : [
                -1.2596182823181152,
                -2.6537139415740967,
                5.503106594085693
            ]
        },
        {
            "mesh" : 5,
            "name" : "2",
            "rotation" : [
                -0.04911871626973152,
                -0.9193409085273743,
                0.34943968057632446,
                -0.17404527962207794
            ],
            "scale" : [
                0.21413302421569824,
                1.5043115615844727,
                0.21413302421569824
            ],
            "translation" : [
                -1.0868289470672607,
                -1.4151841402053833,
                4.6329264640808105
            ]
        },
        {
            "mesh" : 6,
            "name" : "5",
            "rotation" : [
                -0.5805758833885193,
                -0.1891455054283142,
                0.7780175805091858,
                -0.1477980613708496
            ],
            "scale" : [
                0.21413302421569824,
                1.5043115615844727,
                0.21413302421569824
            ],
            "translation" : [
                -1.7029547691345215,
                1.4123786687850952,
                3.9513940811157227
            ]
        },
        {
            "mesh" : 7,
            "name" : "4",
            "rotation" : [
                -0.5973662734031677,
                0.12648321688175201,
                0.7476819157600403,
                0.2610120177268982
            ],
            "scale" : [
                0.21413302421569824,
                1.5043115615844727,
                0.21413302421569824
            ],
            "translation" : [
                -0.008184202015399933,
                1.2267177104949951,
                4.078699588775635
            ]
        },
        {
            "mesh" : 8,
            "name" : "6",
            "rotation" : [
                -0.9735093116760254,
                0,
                0,
                0.22864729166030884
            ],
            "scale" : [
                0.21413302421569824,
                1.128000259399414,
                0.21413302421569824
            ],
            "translation" : [
                0,
                -1.4546589851379395,
                -0.7232035994529724
            ]
        },
        {
            "mesh" : 9,
            "name" : "7",
            "rotation" : [
                0.029401961714029312,
                -0.6840866804122925,
                0.7066264152526855,
                -0.17843766510486603
            ],
            "scale" : [
                0.21413302421569824,
                1.5043115615844727,
                0.21413302421569824
            ],
            "translation" : [
                0.26286983489990234,
                -2.338507652282715,
                -2.6107020378112793
            ]
        }
    ],
    "materials" : [
        {
            "doubleSided" : true,
            "extensions" : {
                "KHR_materials_clearcoat" : {
                    "clearcoatFactor" : 0.20000000298023224,
                    "clearcoatRoughnessFactor" : 0.10000000149011612
                }
            },
            "name" : "\u041c\u0430\u0442\u0435\u0440\u0438\u0430\u043b",
            "pbrMetallicRoughness" : {
                "baseColorFactor" : [
                    0.07818739116191864,
                    0.15592652559280396,
                    0.3139888048171997,
                    1
                ],
                "metallicFactor" : 0.3700000047683716,
                "roughnessFactor" : 0.4000000059604645
            }
        },
        {
            "doubleSided" : true,
            "extensions" : {
                "KHR_materials_clearcoat" : {
                    "clearcoatFactor" : 0.20000000298023224,
                    "clearcoatRoughnessFactor" : 0.10000000149011612
                }
            },
            "name" : "\u041c\u0430\u0442\u0435\u0440\u0438\u0430\u043b.001",
            "pbrMetallicRoughness" : {
                "baseColorFactor" : [
                    0.7011022567749023,
                    0.6653873920440674,
                    0.18782085180282593,
                    1
                ],
                "metallicFactor" : 0.27000001072883606,
                "roughnessFactor" : 0.4000000059604645
            }
        },
        {
            "doubleSided" : true,
            "name" : "\u041c\u0430\u0442\u0435\u0440\u0438\u0430\u043b.003",
            "pbrMetallicRoughness" : {
                "baseColorFactor" : [
                    0.5209957361221313,
                    0.5209954977035522,
                    0.5209956169128418,
                    1
                ],
                "metallicFactor" : 0,
                "roughnessFactor" : 0.5
            }
        },
        {
            "doubleSided" : true,
            "extensions" : {
                "KHR_materials_clearcoat" : {
                    "clearcoatFactor" : 0.20000000298023224,
                    "clearcoatRoughnessFactor" : 0.10000000149011612
                }
            },
            "name" : "\u041c\u0430\u0442\u0435\u0440\u0438\u0430\u043b.002",
            "pbrMetallicRoughness" : {
                "baseColorFactor" : [
                    0.024157635867595673,
                    0.31398874521255493,
                    0.21223078668117523,
                    1
                ],
                "metallicFactor" : 0.27000001072883606,
                "roughnessFactor" : 0.4000000059604645
            }
        }
    ],
    "meshes" : [
        {
            "name" : "Sphere.001",
            "primitives" : [
                {
                    "attributes" : {
                        "POSITION" : 0,
                        "NORMAL" : 1,
                        "TEXCOORD_0" : 2
                    },
                    "indices" : 3,
                    "material" : 0
                }
            ]
        },
        {
            "name" : "Sphere.005",
            "primitives" : [
                {
                    "attributes" : {
                        "POSITION" : 4,
                        "NORMAL" : 5,
                        "TEXCOORD_0" : 6
                    },
                    "indices" : 7,
                    "material" : 1
                }
            ]
        },
        {
            "name" : "Cylinder.004",
            "primitives" : [
                {
                    "attributes" : {
                        "POSITION" : 8,
                        "NORMAL" : 9,
                        "TEXCOORD_0" : 10
                    },
                    "indices" : 11,
                    "material" : 2
                }
            ]
        },
        {
            "name" : "Cylinder.011",
            "primitives" : [
                {
                    "attributes" : {
                        "POSITION" : 12,
                        "NORMAL" : 13,
                        "TEXCOORD_0" : 14
                    },
                    "indices" : 11,
                    "material" : 2
                }
            ]
        },
        {
            "name" : "Sphere.002",
            "primitives" : [
                {
                    "attributes" : {
                        "POSITION" : 15,
                        "NORMAL" : 16,
                        "TEXCOORD_0" : 17
                    },
                    "indices" : 18,
                    "material" : 3
                }
            ]
        },
        {
            "name" : "Cylinder.002",
            "primitives" : [
                {
                    "attributes" : {
                        "POSITION" : 19,
                        "NORMAL" : 20,
                        "TEXCOORD_0" : 21
                    },
                    "indices" : 11,
                    "material" : 2
                }
            ]
        },
        {
            "name" : "Cylinder.003",
            "primitives" : [
                {
                    "attributes" : {
                        "POSITION" : 22,
                        "NORMAL" : 23,
                        "TEXCOORD_0" : 24
                    },
                    "indices" : 11,
                    "material" : 2
                }
            ]
        },
        {
            "name" : "Cylinder.005",
            "primitives" : [
                {
                    "attributes" : {
                        "POSITION" : 25,
                        "NORMAL" : 26,
                        "TEXCOORD_0" : 27
                    },
                    "indices" : 11,
                    "material" : 2
                }
            ]
        },
        {
            "name" : "Cylinder.008",
            "primitives" : [
                {
                    "attributes" : {
                        "POSITION" : 28,
                        "NORMAL" : 29,
                        "TEXCOORD_0" : 30
                    },
                    "indices" : 11,
                    "material" : 2
                }
            ]
        },
        {
            "name" : "Cylinder.013",
            "primitives" : [
                {
                    "attributes" : {
                        "POSITION" : 31,
                        "NORMAL" : 32,
                        "TEXCOORD_0" : 33
                    },
                    "indices" : 11,
                    "material" : 2
                }
            ]
        }
    ],
    "accessors" : [
        {
            "bufferView" : 0,
            "componentType" : 5126,
            "count" : 1118,
            "max" : [
                0.9999997019767761,
                1,
                0.9999994039535522
            ],
            "min" : [
                -0.9999990463256836,
                -5.212756156921387,
                -3.260509490966797
            ],
            "type" : "VEC3"
        },
        {
            "bufferView" : 1,
            "componentType" : 5126,
            "count" : 1118,
            "type" : "VEC3"
        },
        {
            "bufferView" : 2,
            "componentType" : 5126,
            "count" : 1118,
            "type" : "VEC2"
        },
        {
            "bufferView" : 3,
            "componentType" : 5123,
            "count" : 5760,
            "type" : "SCALAR"
        },
        {
            "bufferView" : 4,
            "componentType" : 5126,
            "count" : 1118,
            "max" : [
                3.1270689964294434,
                3.1339406967163086,
                3.187023401260376
            ],
            "min" : [
                -0.9999990463256836,
                -1,
                -0.9999987483024597
            ],
            "type" : "VEC3"
        },
        {
            "bufferView" : 5,
            "componentType" : 5126,
            "count" : 1118,
            "type" : "VEC3"
        },
        {
            "bufferView" : 6,
            "componentType" : 5126,
            "count" : 1118,
            "type" : "VEC2"
        },
        {
            "bufferView" : 7,
            "componentType" : 5123,
            "count" : 5760,
            "type" : "SCALAR"
        },
        {
            "bufferView" : 8,
            "componentType" : 5126,
            "count" : 130,
            "max" : [
                1,
                1,
                1
            ],
            "min" : [
                -1,
                -1,
                -1
            ],
            "type" : "VEC3"
        },
        {
            "bufferView" : 9,
            "componentType" : 5126,
            "count" : 130,
            "type" : "VEC3"
        },
        {
            "bufferView" : 10,
            "componentType" : 5126,
            "count" : 130,
            "type" : "VEC2"
        },
        {
            "bufferView" : 11,
            "componentType" : 5123,
            "count" : 372,
            "type" : "SCALAR"
        },
        {
            "bufferView" : 12,
            "componentType" : 5126,
            "count" : 130,
            "max" : [
                1,
                1,
                1
            ],
            "min" : [
                -1,
                -1,
                -1
            ],
            "type" : "VEC3"
        },
        {
            "bufferView" : 13,
            "componentType" : 5126,
            "count" : 130,
            "type" : "VEC3"
        },
        {
            "bufferView" : 14,
            "componentType" : 5126,
            "count" : 130,
            "type" : "VEC2"
        },
        {
            "bufferView" : 15,
            "componentType" : 5126,
            "count" : 3354,
            "max" : [
                7.2579121589660645,
                6.217767715454102,
                6.738550186157227
            ],
            "min" : [
                -3.412583827972412,
                -1,
                -2.8745269775390625
            ],
            "type" : "VEC3"
        },
        {
            "bufferView" : 16,
            "componentType" : 5126,
            "count" : 3354,
            "type" : "VEC3"
        },
        {
            "bufferView" : 17,
            "componentType" : 5126,
            "count" : 3354,
            "type" : "VEC2"
        },
        {
            "bufferView" : 18,
            "componentType" : 5123,
            "count" : 17280,
            "type" : "SCALAR"
        },
        {
            "bufferView" : 19,
            "componentType" : 5126,
            "count" : 130,
            "max" : [
                1,
                1,
                1
            ],
            "min" : [
                -1,
                -1,
                -1
            ],
            "type" : "VEC3"
        },
        {
            "bufferView" : 20,
            "componentType" : 5126,
            "count" : 130,
            "type" : "VEC3"
        },
        {
            "bufferView" : 21,
            "componentType" : 5126,
            "count" : 130,
            "type" : "VEC2"
        },
        {
            "bufferView" : 22,
            "componentType" : 5126,
            "count" : 130,
            "max" : [
                1,
                1,
                1
            ],
            "min" : [
                -1,
                -1,
                -1
            ],
            "type" : "VEC3"
        },
        {
            "bufferView" : 23,
            "componentType" : 5126,
            "count" : 130,
            "type" : "VEC3"
        },
        {
            "bufferView" : 24,
            "componentType" : 5126,
            "count" : 130,
            "type" : "VEC2"
        },
        {
            "bufferView" : 25,
            "componentType" : 5126,
            "count" : 130,
            "max" : [
                1,
                1,
                1
            ],
            "min" : [
                -1,
                -1,
                -1
            ],
            "type" : "VEC3"
        },
        {
            "bufferView" : 26,
            "componentType" : 5126,
            "count" : 130,
            "type" : "VEC3"
        },
        {
            "bufferView" : 27,
            "componentType" : 5126,
            "count" : 130,
            "type" : "VEC2"
        },
        {
            "bufferView" : 28,
            "componentType" : 5126,
            "count" : 130,
            "max" : [
                1,
                1,
                1
            ],
            "min" : [
                -1,
                -1,
                -1
            ],
            "type" : "VEC3"
        },
        {
            "bufferView" : 29,
            "componentType" : 5126,
            "count" : 130,
            "type" : "VEC3"
        },
        {
            "bufferView" : 30,
            "componentType" : 5126,
            "count" : 130,
            "type" : "VEC2"
        },
        {
            "bufferView" : 31,
            "componentType" : 5126,
            "count" : 130,
            "max" : [
                1,
                1,
                1
            ],
            "min" : [
                -1,
                -1,
                -1
            ],
            "type" : "VEC3"
        },
        {
            "bufferView" : 32,
            "componentType" : 5126,
            "count" : 130,
            "type" : "VEC3"
        },
        {
            "bufferView" : 33,
            "componentType" : 5126,
            "count" : 130,
            "type" : "VEC2"
        }
    ],
    "bufferViews" : [
        {
            "buffer" : 0,
            "byteLength" : 13416,
            "byteOffset" : 0
        },
        {
            "buffer" : 0,
            "byteLength" : 13416,
            "byteOffset" : 13416
        },
        {
            "buffer" : 0,
            "byteLength" : 8944,
            "byteOffset" : 26832
        },
        {
            "buffer" : 0,
            "byteLength" : 11520,
            "byteOffset" : 35776
        },
        {
            "buffer" : 0,
            "byteLength" : 13416,
            "byteOffset" : 47296
        },
        {
            "buffer" : 0,
            "byteLength" : 13416,
            "byteOffset" : 60712
        },
        {
            "buffer" : 0,
            "byteLength" : 8944,
            "byteOffset" : 74128
        },
        {
            "buffer" : 0,
            "byteLength" : 11520,
            "byteOffset" : 83072
        },
        {
            "buffer" : 0,
            "byteLength" : 1560,
            "byteOffset" : 94592
        },
        {
            "buffer" : 0,
            "byteLength" : 1560,
            "byteOffset" : 96152
        },
        {
            "buffer" : 0,
            "byteLength" : 1040,
            "byteOffset" : 97712
        },
        {
            "buffer" : 0,
            "byteLength" : 744,
            "byteOffset" : 98752
        },
        {
            "buffer" : 0,
            "byteLength" : 1560,
            "byteOffset" : 99496
        },
        {
            "buffer" : 0,
            "byteLength" : 1560,
            "byteOffset" : 101056
        },
        {
            "buffer" : 0,
            "byteLength" : 1040,
            "byteOffset" : 102616
        },
        {
            "buffer" : 0,
            "byteLength" : 40248,
            "byteOffset" : 103656
        },
        {
            "buffer" : 0,
            "byteLength" : 40248,
            "byteOffset" : 143904
        },
        {
            "buffer" : 0,
            "byteLength" : 26832,
            "byteOffset" : 184152
        },
        {
            "buffer" : 0,
            "byteLength" : 34560,
            "byteOffset" : 210984
        },
        {
            "buffer" : 0,
            "byteLength" : 1560,
            "byteOffset" : 245544
        },
        {
            "buffer" : 0,
            "byteLength" : 1560,
            "byteOffset" : 247104
        },
        {
            "buffer" : 0,
            "byteLength" : 1040,
            "byteOffset" : 248664
        },
        {
            "buffer" : 0,
            "byteLength" : 1560,
            "byteOffset" : 249704
        },
        {
            "buffer" : 0,
            "byteLength" : 1560,
            "byteOffset" : 251264
        },
        {
            "buffer" : 0,
            "byteLength" : 1040,
            "byteOffset" : 252824
        },
        {
            "buffer" : 0,
            "byteLength" : 1560,
            "byteOffset" : 253864
        },
        {
            "buffer" : 0,
            "byteLength" : 1560,
            "byteOffset" : 255424
        },
        {
            "buffer" : 0,
            "byteLength" : 1040,
            "byteOffset" : 256984
        },
        {
            "buffer" : 0,
            "byteLength" : 1560,
            "byteOffset" : 258024
        },
        {
            "buffer" : 0,
            "byteLength" : 1560,
            "byteOffset" : 259584
        },
        {
            "buffer" : 0,
            "byteLength" : 1040,
            "byteOffset" : 261144
        },
        {
            "buffer" : 0,
            "byteLength" : 1560,
            "byteOffset" : 262184
        },
        {
            "buffer" : 0,
            "byteLength" : 1560,
            "byteOffset" : 263744
        },
        {
            "buffer" : 0,
            "byteLength" : 1040,
            "byteOffset" : 265304
        }
    ],
    "buffers" : [
        {
            "byteLength" : 266344,
            "uri" : "data:application/octet-stream;base64,"
        }
    ]
}
