<?xml version="1.0" encoding="UTF-8" standalone="no"?><!-- Generator: Gravit.io --><svg xmlns="http://www.w3.org/2000/svg" xmlns:xlink="http://www.w3.org/1999/xlink" style="isolation:isolate" viewBox="0 0 128 128" width="128pt" height="128pt"><defs><clipPath id="_clipPath_RYaVPUwGL8OeRcTxwDNEWpMJZJa0VtYY"><rect width="128" height="128"/></clipPath></defs><g clip-path="url(#_clipPath_RYaVPUwGL8OeRcTxwDNEWpMJZJa0VtYY)"><g><mask id="_mask_87SujavoxRBRcfYLmjjQ5J7DhNcgJIGI"><circle vector-effect="non-scaling-stroke" cx="55.572625391633004" cy="59.89284511615024" r="10.633416924291616" fill="white" stroke="none"/></mask><circle vector-effect="non-scaling-stroke" cx="55.572625391633004" cy="59.89284511615024" r="10.633416924291616" fill="none"/><circle vector-effect="non-scaling-stroke" cx="55.572625391633004" cy="59.89284511615024" r="10.633416924291616" fill="none" mask="url(#_mask_87SujavoxRBRcfYLmjjQ5J7DhNcgJIGI)" stroke-width="6" stroke="rgb(0,0,0)" stroke-linejoin="miter" stroke-linecap="square" stroke-miterlimit="3"/><mask id="_mask_KnDTD6HvCbhdt8WYoFXJhxrzk1yKFTV6"><circle vector-effect="non-scaling-stroke" cx="69.75695665984935" cy="72.73538170978094" r="8.424297254952549" fill="white" stroke="none"/></mask><circle vector-effect="non-scaling-stroke" cx="69.75695665984935" cy="72.73538170978094" r="8.424297254952549" fill="none"/><circle vector-effect="non-scaling-stroke" cx="69.75695665984935" cy="72.73538170978094" r="8.424297254952549" fill="none" mask="url(#_mask_KnDTD6HvCbhdt8WYoFXJhxrzk1yKFTV6)" stroke-width="6" stroke="rgb(0,0,0)" stroke-linejoin="miter" stroke-linecap="square" stroke-miterlimit="3"/><mask id="_mask_aOjTAvMyoTcogwScvg9UASTJmsZM1PFa"><ellipse vector-effect="non-scaling-stroke" cx="62.145960777503305" cy="65.3317006273463" rx="27.63278801743556" ry="59.760065652164826" fill="white" stroke="none"/></mask><ellipse vector-effect="non-scaling-stroke" cx="62.145960777503305" cy="65.3317006273463" rx="27.63278801743556" ry="59.760065652164826" fill="none"/><ellipse vector-effect="non-scaling-stroke" cx="62.145960777503305" cy="65.3317006273463" rx="27.63278801743556" ry="59.760065652164826" fill="none" mask="url(#_mask_aOjTAvMyoTcogwScvg9UASTJmsZM1PFa)" stroke-width="6" stroke="rgb(0,0,0)" stroke-linejoin="miter" stroke-linecap="square" stroke-miterlimit="3"/><mask id="_mask_yin7A2IVZElEQO2ftbWgyogsp5By5cNa"><circle vector-effect="non-scaling-stroke" cx="66.20604231592465" cy="59.89284511615024" r="9.291622249705956" fill="white" stroke="none"/></mask><circle vector-effect="non-scaling-stroke" cx="66.20604231592465" cy="59.89284511615024" r="9.291622249705956" fill="rgb(255,255,255)"/><circle vector-effect="non-scaling-stroke" cx="66.20604231592465" cy="59.89284511615024" r="9.291622249705956" fill="rgb(255,255,255)" mask="url(#_mask_yin7A2IVZElEQO2ftbWgyogsp5By5cNa)" stroke-width="6" stroke="rgb(0,0,0)" stroke-linejoin="miter" stroke-linecap="square" stroke-miterlimit="3"/><mask id="_mask_zZE9ZbWzW9fUImDC769DyiEN443FKX6b"><circle vector-effect="non-scaling-stroke" cx="55.572625391633004" cy="72.26091202994864" r="10.633416924291616" fill="white" stroke="none"/></mask><circle vector-effect="non-scaling-stroke" cx="55.572625391633004" cy="72.26091202994864" r="10.633416924291616" fill="rgb(255,255,255)"/><circle vector-effect="non-scaling-stroke" cx="55.572625391633004" cy="72.26091202994864" r="10.633416924291616" fill="rgb(255,255,255)" mask="url(#_mask_zZE9ZbWzW9fUImDC769DyiEN443FKX6b)" stroke-width="6" stroke="rgb(0,0,0)" stroke-linejoin="miter" stroke-linecap="square" stroke-miterlimit="3"/><mask id="_mask_YdnTivYfscIGGwiDJvRpuVxC7MSX6fqd"><path d=" M 47.581 94.517 C 15.898 73.982 -2.468 45.959 6.594 31.977 C 15.656 17.996 48.736 23.317 80.419 43.852 C 112.102 64.387 130.468 92.41 121.406 106.392 C 112.344 120.373 79.264 115.052 47.581 94.517 Z " fill="white" stroke="none"/></mask><path d=" M 47.581 94.517 C 15.898 73.982 -2.468 45.959 6.594 31.977 C 15.656 17.996 48.736 23.317 80.419 43.852 C 112.102 64.387 130.468 92.41 121.406 106.392 C 112.344 120.373 79.264 115.052 47.581 94.517 Z " fill="none"/><path d=" M 47.581 94.517 C 15.898 73.982 -2.468 45.959 6.594 31.977 C 15.656 17.996 48.736 23.317 80.419 43.852 C 112.102 64.387 130.468 92.41 121.406 106.392 C 112.344 120.373 79.264 115.052 47.581 94.517 Z " fill="none" mask="url(#_mask_YdnTivYfscIGGwiDJvRpuVxC7MSX6fqd)" vector-effect="non-scaling-stroke" stroke-width="6" stroke="rgb(0,0,0)" stroke-linejoin="miter" stroke-linecap="square" stroke-miterlimit="3"/><mask id="_mask_jtVL9qeLc73vGSmkSnPneJDQnDyKnS20"><path d=" M 45.407 43.002 C 76.247 21.221 109.089 14.587 118.7 28.197 C 128.312 41.806 111.077 70.538 80.236 92.319 C 49.396 114.1 16.554 120.734 6.943 107.124 C -2.669 93.515 14.566 64.783 45.407 43.002 Z " fill="white" stroke="none"/></mask><path d=" M 45.407 43.002 C 76.247 21.221 109.089 14.587 118.7 28.197 C 128.312 41.806 111.077 70.538 80.236 92.319 C 49.396 114.1 16.554 120.734 6.943 107.124 C -2.669 93.515 14.566 64.783 45.407 43.002 Z " fill="none"/><path d=" M 45.407 43.002 C 76.247 21.221 109.089 14.587 118.7 28.197 C 128.312 41.806 111.077 70.538 80.236 92.319 C 49.396 114.1 16.554 120.734 6.943 107.124 C -2.669 93.515 14.566 64.783 45.407 43.002 Z " fill="none" mask="url(#_mask_jtVL9qeLc73vGSmkSnPneJDQnDyKnS20)" vector-effect="non-scaling-stroke" stroke-width="6" stroke="rgb(0,0,0)" stroke-linejoin="miter" stroke-linecap="square" stroke-miterlimit="3"/><mask id="_mask_yyLtVYMsIyvD3wkBZTLJOO90kbJacq4r"><circle vector-effect="non-scaling-stroke" cx="21.841828705799273" cy="110.75579644105984" r="8.635865983272197" fill="white" stroke="none"/></mask><circle vector-effect="non-scaling-stroke" cx="21.841828705799273" cy="110.75579644105984" r="8.635865983272197" fill="rgb(255,255,255)"/><circle vector-effect="non-scaling-stroke" cx="21.841828705799273" cy="110.75579644105984" r="8.635865983272197" fill="rgb(255,255,255)" mask="url(#_mask_yyLtVYMsIyvD3wkBZTLJOO90kbJacq4r)" stroke-width="6" stroke="rgb(0,0,0)" stroke-linejoin="miter" stroke-linecap="square" stroke-miterlimit="3"/><mask id="_mask_9D7uEQ5NOR7C5cYSRtPVOkCmSbnwNzaQ"><circle vector-effect="non-scaling-stroke" cx="22.311164545176517" cy="26.77334582885947" r="8.166530143894963" fill="white" stroke="none"/></mask><circle vector-effect="non-scaling-stroke" cx="22.311164545176517" cy="26.77334582885947" r="8.166530143894963" fill="rgb(255,255,255)"/><circle vector-effect="non-scaling-stroke" cx="22.311164545176517" cy="26.77334582885947" r="8.166530143894963" fill="rgb(255,255,255)" mask="url(#_mask_9D7uEQ5NOR7C5cYSRtPVOkCmSbnwNzaQ)" stroke-width="6" stroke="rgb(0,0,0)" stroke-linejoin="miter" stroke-linecap="square" stroke-miterlimit="3"/><mask id="_mask_xOqT3hbSOmUiEExYBEqn28GHmfZpEzW3"><circle vector-effect="non-scaling-stroke" cx="71.84929098223775" cy="10.757524702726666" r="7.849290982237818" fill="white" stroke="none"/></mask><circle vector-effect="non-scaling-stroke" cx="71.84929098223775" cy="10.757524702726666" r="7.849290982237818" fill="rgb(255,255,255)"/><circle vector-effect="non-scaling-stroke" cx="71.84929098223775" cy="10.757524702726666" r="7.849290982237818" fill="rgb(255,255,255)" mask="url(#_mask_xOqT3hbSOmUiEExYBEqn28GHmfZpEzW3)" stroke-width="6" stroke="rgb(0,0,0)" stroke-linejoin="miter" stroke-linecap="square" stroke-miterlimit="3"/></g></g></svg>