{
    "asset" : {
        "generator" : "Khronos glTF Blender I/O v1.7.33",
        "version" : "2.0"
    },
    "extensionsUsed" : [
        "KHR_materials_clearcoat"
    ],
    "scene" : 0,
    "scenes" : [
        {
            "name" : "Scene",
            "nodes" : [
                0,
                1,
                2,
                3,
                4,
                5,
                6,
                7,
                8,
                9,
                10
            ]
        }
    ],
    "nodes" : [
        {
            "mesh" : 0,
            "name" : "Sphere"
        },
        {
            "mesh" : 1,
            "name" : "Sphere.002",
            "rotation" : [
                -0.2728107273578644,
                0.7779510617256165,
                -0.4625319242477417,
                0.32623711228370667
            ],
            "translation" : [
                -0.12049367278814316,
                1.3973592519760132,
                3.061939001083374
            ]
        },
        {
            "mesh" : 2,
            "name" : "1",
            "rotation" : [
                -0.2588190734386444,
                0,
                0,
                0.965925931930542
            ],
            "scale" : [
                0.21413302421569824,
                1.128000259399414,
                0.21413302421569824
            ],
            "translation" : [
                0,
                1.4068732261657715,
                -0.8122586607933044
            ]
        },
        {
            "mesh" : 3,
            "name" : "3",
            "rotation" : [
                0.1280258446931839,
                -0.49434542655944824,
                0.856603741645813,
                -0.07390566915273666
            ],
            "scale" : [
                0.21413302421569824,
                1.5043115615844727,
                0.21413302421569824
            ],
            "translation" : [
                -0.045882195234298706,
                0.5422161817550659,
                1.2681759595870972
            ]
        },
        {
            "mesh" : 4,
            "name" : "7",
            "rotation" : [
                -0.9238792657852173,
                0.3427937924861908,
                -0.17011480033397675,
                0.0006692802417092025
            ],
            "scale" : [
                0.21413302421569824,
                1.128000259399414,
                0.21413302421569824
            ],
            "translation" : [
                -1.0285992622375488,
                -1.2427297830581665,
                -0.1914748251438141
            ]
        },
        {
            "mesh" : 5,
            "name" : "8",
            "rotation" : [
                -0.9336435198783875,
                -0.32438018918037415,
                0.15177755057811737,
                0.007147370371967554
            ],
            "scale" : [
                0.21413302421569824,
                1.128000259399414,
                0.21413302421569824
            ],
            "translation" : [
                0.9804630279541016,
                -1.2824798822402954,
                -0.18164342641830444
            ]
        },
        {
            "mesh" : 6,
            "name" : "6",
            "rotation" : [
                0,
                0.965925931930542,
                0.2588190734386444,
                -1.5736929981358116e-07
            ],
            "scale" : [
                0.21413302421569824,
                1.128000259399414,
                0.21413302421569824
            ],
            "translation" : [
                -0.08038490265607834,
                1.4068732261657715,
                6.950583457946777
            ]
        },
        {
            "mesh" : 7,
            "name" : "5",
            "rotation" : [
                0.8566036820411682,
                -0.07390560209751129,
                -0.12802599370479584,
                0.49434545636177063
            ],
            "scale" : [
                0.21413302421569824,
                1.5043115615844727,
                0.21413302421569824
            ],
            "translation" : [
                -0.03450288996100426,
                0.5422161817550659,
                4.8701491355896
            ]
        },
        {
            "mesh" : 8,
            "name" : "4",
            "rotation" : [
                -0.17011472582817078,
                0.0006691550952382386,
                0.9238792657852173,
                -0.3427938222885132
            ],
            "scale" : [
                0.21413302421569824,
                1.128000259399414,
                0.21413302421569824
            ],
            "translation" : [
                0.9482142925262451,
                -1.2427297830581665,
                6.329799652099609
            ]
        },
        {
            "mesh" : 9,
            "name" : "2",
            "rotation" : [
                0.15177763998508453,
                0.007147306110709906,
                0.9336434006690979,
                0.32438015937805176
            ],
            "scale" : [
                0.21413302421569824,
                1.128000259399414,
                0.21413302421569824
            ],
            "translation" : [
                -1.0608479976654053,
                -1.2824798822402954,
                6.319968223571777
            ]
        },
        {
            "mesh" : 10,
            "name" : "Sphere.003",
            "rotation" : [
                0.15177763998508453,
                0.007147306110709906,
                0.9336434006690979,
                0.32438015937805176
            ],
            "translation" : [
                -1.7177094221115112,
                -2.1416776180267334,
                6.441660404205322
            ]
        }
    ],
    "materials" : [
        {
            "doubleSided" : true,
            "extensions" : {
                "KHR_materials_clearcoat" : {
                    "clearcoatFactor" : 0.20000000298023224,
                    "clearcoatRoughnessFactor" : 0.10000000149011612
                }
            },
            "name" : "\u041c\u0430\u0442\u0435\u0440\u0438\u0430\u043b.002",
            "pbrMetallicRoughness" : {
                "baseColorFactor" : [
                    0.7011022567749023,
                    0.6653873920440674,
                    0.18782085180282593,
                    1
                ],
                "metallicFactor" : 0.27000001072883606,
                "roughnessFactor" : 0.4000000059604645
            }
        },
        {
            "doubleSided" : true,
            "extensions" : {
                "KHR_materials_clearcoat" : {
                    "clearcoatFactor" : 0.20000000298023224,
                    "clearcoatRoughnessFactor" : 0.10000000149011612
                }
            },
            "name" : "\u041c\u0430\u0442\u0435\u0440\u0438\u0430\u043b",
            "pbrMetallicRoughness" : {
                "baseColorFactor" : [
                    0.07818739116191864,
                    0.15592652559280396,
                    0.3139888048171997,
                    1
                ],
                "metallicFactor" : 0.27000001072883606,
                "roughnessFactor" : 0.4000000059604645
            }
        },
        {
            "doubleSided" : true,
            "name" : "\u041c\u0430\u0442\u0435\u0440\u0438\u0430\u043b.003",
            "pbrMetallicRoughness" : {
                "baseColorFactor" : [
                    0.5209957361221313,
                    0.5209954977035522,
                    0.5209956169128418,
                    1
                ],
                "metallicFactor" : 0,
                "roughnessFactor" : 0.5
            }
        },
        {
            "doubleSided" : true,
            "extensions" : {
                "KHR_materials_clearcoat" : {
                    "clearcoatFactor" : 0.20000000298023224,
                    "clearcoatRoughnessFactor" : 0.10000000149011612
                }
            },
            "name" : "\u041c\u0430\u0442\u0435\u0440\u0438\u0430\u043b.001",
            "pbrMetallicRoughness" : {
                "baseColorFactor" : [
                    0.024157635867595673,
                    0.31398874521255493,
                    0.21223078668117523,
                    1
                ],
                "metallicFactor" : 0.27000001072883606,
                "roughnessFactor" : 0.4000000059604645
            }
        }
    ],
    "meshes" : [
        {
            "name" : "Sphere",
            "primitives" : [
                {
                    "attributes" : {
                        "POSITION" : 0,
                        "NORMAL" : 1,
                        "TEXCOORD_0" : 2
                    },
                    "indices" : 3,
                    "material" : 0
                }
            ]
        },
        {
            "name" : "Sphere.005",
            "primitives" : [
                {
                    "attributes" : {
                        "POSITION" : 4,
                        "NORMAL" : 5,
                        "TEXCOORD_0" : 6
                    },
                    "indices" : 7,
                    "material" : 1
                }
            ]
        },
        {
            "name" : "Cylinder.004",
            "primitives" : [
                {
                    "attributes" : {
                        "POSITION" : 8,
                        "NORMAL" : 9,
                        "TEXCOORD_0" : 10
                    },
                    "indices" : 11,
                    "material" : 2
                }
            ]
        },
        {
            "name" : "Cylinder.011",
            "primitives" : [
                {
                    "attributes" : {
                        "POSITION" : 12,
                        "NORMAL" : 13,
                        "TEXCOORD_0" : 14
                    },
                    "indices" : 11,
                    "material" : 2
                }
            ]
        },
        {
            "name" : "Cylinder.012",
            "primitives" : [
                {
                    "attributes" : {
                        "POSITION" : 15,
                        "NORMAL" : 16,
                        "TEXCOORD_0" : 17
                    },
                    "indices" : 11,
                    "material" : 2
                }
            ]
        },
        {
            "name" : "Cylinder.014",
            "primitives" : [
                {
                    "attributes" : {
                        "POSITION" : 18,
                        "NORMAL" : 19,
                        "TEXCOORD_0" : 20
                    },
                    "indices" : 11,
                    "material" : 2
                }
            ]
        },
        {
            "name" : "Cylinder.020",
            "primitives" : [
                {
                    "attributes" : {
                        "POSITION" : 21,
                        "NORMAL" : 22,
                        "TEXCOORD_0" : 23
                    },
                    "indices" : 11,
                    "material" : 2
                }
            ]
        },
        {
            "name" : "Cylinder.019",
            "primitives" : [
                {
                    "attributes" : {
                        "POSITION" : 24,
                        "NORMAL" : 25,
                        "TEXCOORD_0" : 26
                    },
                    "indices" : 11,
                    "material" : 2
                }
            ]
        },
        {
            "name" : "Cylinder.018",
            "primitives" : [
                {
                    "attributes" : {
                        "POSITION" : 27,
                        "NORMAL" : 28,
                        "TEXCOORD_0" : 29
                    },
                    "indices" : 11,
                    "material" : 2
                }
            ]
        },
        {
            "name" : "Cylinder.017",
            "primitives" : [
                {
                    "attributes" : {
                        "POSITION" : 30,
                        "NORMAL" : 31,
                        "TEXCOORD_0" : 32
                    },
                    "indices" : 11,
                    "material" : 2
                }
            ]
        },
        {
            "name" : "Sphere.016",
            "primitives" : [
                {
                    "attributes" : {
                        "POSITION" : 33,
                        "NORMAL" : 34,
                        "TEXCOORD_0" : 35
                    },
                    "indices" : 36,
                    "material" : 3
                }
            ]
        }
    ],
    "accessors" : [
        {
            "bufferView" : 0,
            "componentType" : 5126,
            "count" : 1118,
            "max" : [
                0.9999997019767761,
                1,
                7.1383233070373535
            ],
            "min" : [
                -1.0803847312927246,
                -1,
                -0.9999987483024597
            ],
            "type" : "VEC3"
        },
        {
            "bufferView" : 1,
            "componentType" : 5126,
            "count" : 1118,
            "type" : "VEC3"
        },
        {
            "bufferView" : 2,
            "componentType" : 5126,
            "count" : 1118,
            "type" : "VEC2"
        },
        {
            "bufferView" : 3,
            "componentType" : 5123,
            "count" : 5760,
            "type" : "SCALAR"
        },
        {
            "bufferView" : 4,
            "componentType" : 5126,
            "count" : 559,
            "max" : [
                0.9999997019767761,
                1,
                0.9999994039535522
            ],
            "min" : [
                -0.9999990463256836,
                -1,
                -0.9999987483024597
            ],
            "type" : "VEC3"
        },
        {
            "bufferView" : 5,
            "componentType" : 5126,
            "count" : 559,
            "type" : "VEC3"
        },
        {
            "bufferView" : 6,
            "componentType" : 5126,
            "count" : 559,
            "type" : "VEC2"
        },
        {
            "bufferView" : 7,
            "componentType" : 5123,
            "count" : 2880,
            "type" : "SCALAR"
        },
        {
            "bufferView" : 8,
            "componentType" : 5126,
            "count" : 130,
            "max" : [
                1,
                1,
                1
            ],
            "min" : [
                -1,
                -1,
                -1
            ],
            "type" : "VEC3"
        },
        {
            "bufferView" : 9,
            "componentType" : 5126,
            "count" : 130,
            "type" : "VEC3"
        },
        {
            "bufferView" : 10,
            "componentType" : 5126,
            "count" : 130,
            "type" : "VEC2"
        },
        {
            "bufferView" : 11,
            "componentType" : 5123,
            "count" : 372,
            "type" : "SCALAR"
        },
        {
            "bufferView" : 12,
            "componentType" : 5126,
            "count" : 130,
            "max" : [
                1,
                1,
                1
            ],
            "min" : [
                -1,
                -1,
                -1
            ],
            "type" : "VEC3"
        },
        {
            "bufferView" : 13,
            "componentType" : 5126,
            "count" : 130,
            "type" : "VEC3"
        },
        {
            "bufferView" : 14,
            "componentType" : 5126,
            "count" : 130,
            "type" : "VEC2"
        },
        {
            "bufferView" : 15,
            "componentType" : 5126,
            "count" : 130,
            "max" : [
                1,
                1,
                1
            ],
            "min" : [
                -1,
                -1,
                -1
            ],
            "type" : "VEC3"
        },
        {
            "bufferView" : 16,
            "componentType" : 5126,
            "count" : 130,
            "type" : "VEC3"
        },
        {
            "bufferView" : 17,
            "componentType" : 5126,
            "count" : 130,
            "type" : "VEC2"
        },
        {
            "bufferView" : 18,
            "componentType" : 5126,
            "count" : 130,
            "max" : [
                1,
                1,
                1
            ],
            "min" : [
                -1,
                -1,
                -1
            ],
            "type" : "VEC3"
        },
        {
            "bufferView" : 19,
            "componentType" : 5126,
            "count" : 130,
            "type" : "VEC3"
        },
        {
            "bufferView" : 20,
            "componentType" : 5126,
            "count" : 130,
            "type" : "VEC2"
        },
        {
            "bufferView" : 21,
            "componentType" : 5126,
            "count" : 130,
            "max" : [
                1,
                1,
                1
            ],
            "min" : [
                -1,
                -1,
                -1
            ],
            "type" : "VEC3"
        },
        {
            "bufferView" : 22,
            "componentType" : 5126,
            "count" : 130,
            "type" : "VEC3"
        },
        {
            "bufferView" : 23,
            "componentType" : 5126,
            "count" : 130,
            "type" : "VEC2"
        },
        {
            "bufferView" : 24,
            "componentType" : 5126,
            "count" : 130,
            "max" : [
                1,
                1,
                1
            ],
            "min" : [
                -1,
                -1,
                -1
            ],
            "type" : "VEC3"
        },
        {
            "bufferView" : 25,
            "componentType" : 5126,
            "count" : 130,
            "type" : "VEC3"
        },
        {
            "bufferView" : 26,
            "componentType" : 5126,
            "count" : 130,
            "type" : "VEC2"
        },
        {
            "bufferView" : 27,
            "componentType" : 5126,
            "count" : 130,
            "max" : [
                1,
                1,
                1
            ],
            "min" : [
                -1,
                -1,
                -1
            ],
            "type" : "VEC3"
        },
        {
            "bufferView" : 28,
            "componentType" : 5126,
            "count" : 130,
            "type" : "VEC3"
        },
        {
            "bufferView" : 29,
            "componentType" : 5126,
            "count" : 130,
            "type" : "VEC2"
        },
        {
            "bufferView" : 30,
            "componentType" : 5126,
            "count" : 130,
            "max" : [
                1,
                1,
                1
            ],
            "min" : [
                -1,
                -1,
                -1
            ],
            "type" : "VEC3"
        },
        {
            "bufferView" : 31,
            "componentType" : 5126,
            "count" : 130,
            "type" : "VEC3"
        },
        {
            "bufferView" : 32,
            "componentType" : 5126,
            "count" : 130,
            "type" : "VEC2"
        },
        {
            "bufferView" : 33,
            "componentType" : 5126,
            "count" : 3354,
            "max" : [
                2.802830696105957,
                1,
                2.091343402862549
            ],
            "min" : [
                -5.370853424072266,
                -6.45200252532959,
                -8.324932098388672
            ],
            "type" : "VEC3"
        },
        {
            "bufferView" : 34,
            "componentType" : 5126,
            "count" : 3354,
            "type" : "VEC3"
        },
        {
            "bufferView" : 35,
            "componentType" : 5126,
            "count" : 3354,
            "type" : "VEC2"
        },
        {
            "bufferView" : 36,
            "componentType" : 5123,
            "count" : 17280,
            "type" : "SCALAR"
        }
    ],
    "bufferViews" : [
        {
            "buffer" : 0,
            "byteLength" : 13416,
            "byteOffset" : 0
        },
        {
            "buffer" : 0,
            "byteLength" : 13416,
            "byteOffset" : 13416
        },
        {
            "buffer" : 0,
            "byteLength" : 8944,
            "byteOffset" : 26832
        },
        {
            "buffer" : 0,
            "byteLength" : 11520,
            "byteOffset" : 35776
        },
        {
            "buffer" : 0,
            "byteLength" : 6708,
            "byteOffset" : 47296
        },
        {
            "buffer" : 0,
            "byteLength" : 6708,
            "byteOffset" : 54004
        },
        {
            "buffer" : 0,
            "byteLength" : 4472,
            "byteOffset" : 60712
        },
        {
            "buffer" : 0,
            "byteLength" : 5760,
            "byteOffset" : 65184
        },
        {
            "buffer" : 0,
            "byteLength" : 1560,
            "byteOffset" : 70944
        },
        {
            "buffer" : 0,
            "byteLength" : 1560,
            "byteOffset" : 72504
        },
        {
            "buffer" : 0,
            "byteLength" : 1040,
            "byteOffset" : 74064
        },
        {
            "buffer" : 0,
            "byteLength" : 744,
            "byteOffset" : 75104
        },
        {
            "buffer" : 0,
            "byteLength" : 1560,
            "byteOffset" : 75848
        },
        {
            "buffer" : 0,
            "byteLength" : 1560,
            "byteOffset" : 77408
        },
        {
            "buffer" : 0,
            "byteLength" : 1040,
            "byteOffset" : 78968
        },
        {
            "buffer" : 0,
            "byteLength" : 1560,
            "byteOffset" : 80008
        },
        {
            "buffer" : 0,
            "byteLength" : 1560,
            "byteOffset" : 81568
        },
        {
            "buffer" : 0,
            "byteLength" : 1040,
            "byteOffset" : 83128
        },
        {
            "buffer" : 0,
            "byteLength" : 1560,
            "byteOffset" : 84168
        },
        {
            "buffer" : 0,
            "byteLength" : 1560,
            "byteOffset" : 85728
        },
        {
            "buffer" : 0,
            "byteLength" : 1040,
            "byteOffset" : 87288
        },
        {
            "buffer" : 0,
            "byteLength" : 1560,
            "byteOffset" : 88328
        },
        {
            "buffer" : 0,
            "byteLength" : 1560,
            "byteOffset" : 89888
        },
        {
            "buffer" : 0,
            "byteLength" : 1040,
            "byteOffset" : 91448
        },
        {
            "buffer" : 0,
            "byteLength" : 1560,
            "byteOffset" : 92488
        },
        {
            "buffer" : 0,
            "byteLength" : 1560,
            "byteOffset" : 94048
        },
        {
            "buffer" : 0,
            "byteLength" : 1040,
            "byteOffset" : 95608
        },
        {
            "buffer" : 0,
            "byteLength" : 1560,
            "byteOffset" : 96648
        },
        {
            "buffer" : 0,
            "byteLength" : 1560,
            "byteOffset" : 98208
        },
        {
            "buffer" : 0,
            "byteLength" : 1040,
            "byteOffset" : 99768
        },
        {
            "buffer" : 0,
            "byteLength" : 1560,
            "byteOffset" : 100808
        },
        {
            "buffer" : 0,
            "byteLength" : 1560,
            "byteOffset" : 102368
        },
        {
            "buffer" : 0,
            "byteLength" : 1040,
            "byteOffset" : 103928
        },
        {
            "buffer" : 0,
            "byteLength" : 40248,
            "byteOffset" : 104968
        },
        {
            "buffer" : 0,
            "byteLength" : 40248,
            "byteOffset" : 145216
        },
        {
            "buffer" : 0,
            "byteLength" : 26832,
            "byteOffset" : 185464
        },
        {
            "buffer" : 0,
            "byteLength" : 34560,
            "byteOffset" : 212296
        }
    ],
    "buffers" : [
        {
            "byteLength" : 246856,
            "uri" : "data:application/octet-stream;base64,"
        }
    ]
}
